<mxfile host="app.diagrams.net" modified="2023-08-11T23:34:55.098Z" agent="Mozilla/5.0 (iPhone; CPU iPhone OS 16_6 like Mac OS X) AppleWebKit/605.1.15 (KHTML, like Gecko) Version/16.6 Mobile/15E148 Safari/604.1" version="21.6.8" etag="-i7ITQq5oN8SrgOhvp1O" type="github">
  <diagram name="PÃ¡gina-1" id="Y_T43yyCDdxyYuzoIY_Q">
    <mxGraphModel>
      <root>
        <mxCell id="0" />
        <mxCell id="1" parent="0" />
      </root>
    </mxGraphModel>
  </diagram>
</mxfile>
